<?xml version="1.0" encoding="UTF-8"?>
<svg id="_Слой_2" xmlns="http://www.w3.org/2000/svg" viewBox="0 0 713.59 234.66">
    <defs>
        <style>
            .cls-1{fill:#21435e;}.cls-1,.cls-2,.cls-3,.cls-4{stroke-width:0px;}.cls-2{fill:#999;}.cls-3{fill:#3c97a2;}.cls-4{fill:#fff;}
        </style>
    </defs>
    <g id="_Слой_1-2">
        <path class="cls-2" d="M0,226.03l6.47-29.36h18.62l-.48,2.29H8.5l-5.99,27.07H0Z"/>
        <path class="cls-2"
              d="M22.76,222.42l-2.6,11.71h-2.29l6.51-29.36h2.29l-.7,3.21c1.72-2.24,4.27-3.74,7.31-3.74,4.84,0,8.28,3.26,8.28,8.76,0,7.09-4.45,13.56-11.14,13.56-3.52,0-6.21-1.72-7.66-4.14ZM39.04,213.4c0-4.36-2.55-7.09-6.43-7.09-2.99,0-5.72,1.89-7.22,4.09l-2.24,10.21c1.06,2.11,3.61,3.87,7.04,3.87,5.37,0,8.85-5.5,8.85-11.09Z"/>
        <path class="cls-2"
              d="M42.3,232.02c.44.22,1.23.4,2.07.4,1.14,0,2.07-.53,3.35-2.42l2.51-3.83-4.14-21.39h2.47l3.57,18.58,11.84-18.58h2.69l-16.77,25.93c-1.67,2.64-3.52,3.96-5.94,3.96-.88,0-1.85-.18-2.51-.44l.88-2.2Z"/>
        <path class="cls-2"
              d="M86.27,209.52c0,4.01-4.49,5.68-7.17,5.85,2.16.31,5.06,1.72,5.06,4.75,0,4.01-4.71,6.43-9.77,6.43-4.45,0-7.57-1.41-9.29-3.7l1.5-1.36c1.72,2.07,4.36,3.08,7.84,3.08,3.96,0,7.35-1.85,7.35-4.58,0-2.51-2.99-3.79-6.43-3.79h-5.11l.44-1.94h4.93c4.53,0,8.1-1.36,8.1-4.58,0-2.24-2.16-3.48-5.81-3.48-3.39,0-6.12.92-8.58,2.77l-1.1-1.58c2.69-2.02,5.9-3.17,9.82-3.17,5.5,0,8.23,2.02,8.23,5.28Z"/>
        <path class="cls-2"
              d="M89.44,217.23c0-6.73,4.97-12.99,11.71-12.99,5.72,0,9.38,3.7,9.38,9.33,0,6.73-4.97,12.99-11.71,12.99-5.72,0-9.38-3.7-9.38-9.33ZM108.01,213.66c0-4.45-2.55-7.35-6.91-7.35-5.33,0-9.16,5.33-9.16,10.83,0,4.45,2.55,7.35,6.91,7.35,5.33,0,9.16-5.33,9.16-10.83Z"/>
        <path class="cls-2" d="M128.13,226.03l4.36-19.24h-12.02l-4.4,19.24h-2.29l4.84-21.26h16.64l-4.84,21.26h-2.29Z"/>
        <path class="cls-2"
              d="M138.38,217.18c0-7.09,5.19-12.94,11.8-12.94,5.68,0,9.02,4.01,9.02,9.2,0,.92-.22,2.16-.35,2.68h-17.96c-.04.26-.09.84-.09,1.23,0,3.92,2.6,7.22,7.79,7.22,2.16,0,4.58-.75,6.43-2.29l.88,1.67c-1.89,1.45-4.62,2.6-7.39,2.6-6.38,0-10.12-3.83-10.12-9.38ZM156.96,214.32c.04-.22.04-.7.04-.97,0-4.14-2.51-7.13-7.09-7.13-4.27,0-8.06,3.74-8.8,8.1h15.85Z"/>
        <path class="cls-2"
              d="M165.58,222.42l-2.6,11.71h-2.29l6.51-29.36h2.29l-.7,3.21c1.72-2.24,4.27-3.74,7.31-3.74,4.84,0,8.28,3.26,8.28,8.76,0,7.09-4.45,13.56-11.14,13.56-3.52,0-6.21-1.72-7.66-4.14ZM181.87,213.4c0-4.36-2.55-7.09-6.43-7.09-2.99,0-5.72,1.89-7.22,4.09l-2.24,10.21c1.06,2.11,3.61,3.87,7.04,3.87,5.37,0,8.85-5.5,8.85-11.09Z"/>
        <path class="cls-2"
              d="M188.29,217.18c0-7.09,5.19-12.94,11.8-12.94,5.68,0,9.02,4.01,9.02,9.2,0,.92-.22,2.16-.35,2.68h-17.96c-.04.26-.09.84-.09,1.23,0,3.92,2.6,7.22,7.79,7.22,2.16,0,4.58-.75,6.43-2.29l.88,1.67c-1.89,1.45-4.62,2.6-7.39,2.6-6.38,0-10.12-3.83-10.12-9.38ZM206.87,214.32c.04-.22.04-.7.04-.97,0-4.14-2.51-7.13-7.09-7.13-4.27,0-8.06,3.74-8.8,8.1h15.85Z"/>
        <path class="cls-2"
              d="M212.41,226.03l4.67-21.26h9.6c3.17,0,5.81,1.54,5.81,4.71,0,2.73-1.76,5.11-4.8,5.72,1.72.66,3.04,2.42,3.04,4.49,0,3.61-2.68,6.34-7.22,6.34h-11.09ZM223.51,223.96c2.82,0,4.84-1.89,4.84-4.4,0-1.94-1.36-3.48-3.87-3.48h-7.62l-1.72,7.88h8.36ZM225.71,214.06c2.82,0,4.31-2.02,4.31-4.18s-1.76-3.08-4.05-3.08h-7.04l-1.63,7.26h8.41Z"/>
        <path class="cls-2"
              d="M237.02,217.23c0-6.73,4.97-12.99,11.71-12.99,5.72,0,9.38,3.7,9.38,9.33,0,6.73-4.97,12.99-11.71,12.99-5.72,0-9.38-3.7-9.38-9.33ZM255.59,213.66c0-4.45-2.55-7.35-6.91-7.35-5.33,0-9.16,5.33-9.16,10.83,0,4.45,2.55,7.35,6.91,7.35,5.33,0,9.16-5.33,9.16-10.83Z"/>
        <path class="cls-2"
              d="M281.83,209.52c0,4.01-4.49,5.68-7.17,5.85,2.16.31,5.06,1.72,5.06,4.75,0,4.01-4.71,6.43-9.77,6.43-4.45,0-7.57-1.41-9.29-3.7l1.5-1.36c1.72,2.07,4.36,3.08,7.84,3.08,3.96,0,7.35-1.85,7.35-4.58,0-2.51-2.99-3.79-6.43-3.79h-5.11l.44-1.94h4.93c4.53,0,8.1-1.36,8.1-4.58,0-2.24-2.16-3.48-5.81-3.48-3.39,0-6.12.92-8.58,2.77l-1.1-1.58c2.69-2.02,5.9-3.17,9.82-3.17,5.5,0,8.23,2.02,8.23,5.28Z"/>
        <path class="cls-2"
              d="M299.21,226.03l-6.38-10.26-4.93,3.87-1.41,6.38h-2.29l4.71-21.26h2.29l-2.69,11.97,15.05-11.97h3.21l-12.06,9.6,7.31,11.66h-2.82Z"/>
        <path class="cls-2"
              d="M306.43,226.03l4.67-21.26h2.29l-3.92,17.7,16.02-17.7h2.24l-4.67,21.26h-2.29l3.92-17.96-16.07,17.96h-2.2Z"/>
        <path class="cls-2" d="M355.95,226.03l4.36-19.24h-12.02l-4.4,19.24h-2.29l4.84-21.26h16.64l-4.84,21.26h-2.29Z"/>
        <path class="cls-2"
              d="M366.16,217.23c0-6.73,4.97-12.99,11.71-12.99,5.72,0,9.38,3.7,9.38,9.33,0,6.73-4.97,12.99-11.71,12.99-5.72,0-9.38-3.7-9.38-9.33ZM384.73,213.66c0-4.45-2.55-7.35-6.91-7.35-5.33,0-9.16,5.33-9.16,10.83,0,4.45,2.55,7.35,6.91,7.35,5.33,0,9.16-5.33,9.16-10.83Z"/>
        <path class="cls-2"
              d="M401.98,226.03l6.47-29.36h10.3c4.62,0,7.7,3.43,7.7,7.35,0,4.53-3.08,9.82-10.87,9.82h-8.36l-2.73,12.19h-2.51ZM415.89,211.55c5.24,0,7.88-3.48,7.88-7.35,0-2.77-2.29-5.24-5.41-5.24h-7.88l-2.77,12.59h8.19Z"/>
        <path class="cls-2"
              d="M427.29,217.23c0-6.73,4.97-12.99,11.71-12.99,5.72,0,9.38,3.7,9.38,9.33,0,6.73-4.97,12.99-11.71,12.99-5.72,0-9.38-3.7-9.38-9.33ZM445.87,213.66c0-4.45-2.55-7.35-6.91-7.35-5.33,0-9.16,5.33-9.16,10.83,0,4.45,2.55,7.35,6.91,7.35,5.33,0,9.16-5.33,9.16-10.83Z"/>
        <path class="cls-2"
              d="M452.47,217.14c0-7,5.15-12.9,11.8-12.9,3.65,0,6.16,1.41,7.62,3.87l-1.76,1.32c-1.23-2.16-3.43-3.13-5.77-3.13-5.85,0-9.46,5.28-9.46,10.87,0,4.84,3.13,7.31,7.26,7.31,2.38,0,4.4-1.1,5.77-2.73l1.32,1.58c-1.85,1.94-4.09,3.21-7.31,3.21-5.46,0-9.46-3.39-9.46-9.42Z"/>
        <path class="cls-2"
              d="M474.21,217.14c0-7,5.15-12.9,11.8-12.9,3.65,0,6.16,1.41,7.62,3.87l-1.76,1.32c-1.23-2.16-3.43-3.13-5.77-3.13-5.85,0-9.46,5.28-9.46,10.87,0,4.84,3.13,7.31,7.26,7.31,2.38,0,4.4-1.1,5.77-2.73l1.32,1.58c-1.85,1.94-4.09,3.21-7.31,3.21-5.46,0-9.46-3.39-9.46-9.42Z"/>
        <path class="cls-2"
              d="M495.12,226.03l4.67-21.26h2.29l-3.92,17.7,16.02-17.7h2.25l-4.67,21.26h-2.29l3.92-17.96-16.07,17.96h-2.2Z"/>
        <path class="cls-2"
              d="M518.89,226.03l4.67-21.26h2.29l-3.92,17.7,16.02-17.7h2.25l-4.67,21.26h-2.29l3.92-17.96-16.07,17.96h-2.2Z"/>
        <path class="cls-1"
              d="M713.07,114.95c-2.93,13.33-11.28,21.51-25.24,23.88-4.37.71-11.23.37-16.93.44-2.29.03-3.29,1.21-3.73,3.42-1.71,8.64-3.62,17.23-5.42,25.85-.94,4.51-.92,4.19-5.67,4.19-2.97,0-5.1,0-9.2,0-3.62,0-4.29-.76-3.55-4.2,5.51-25.72,11.03-51.44,16.47-77.18.47-2.23,1.46-2.87,3.73-2.87,8.94-.03,16.77,0,25.83,0,4.12.17,8.38.89,12.24,2.54,6.63,2.83,10.76,7.28,11.73,14.64.61,4.62-.05,8.32-.26,9.29ZM671.57,122.06c4.67,0,9.1.31,13.46-.1,3.48-.33,6.58-2.05,8.61-5.14,3.62-5.52,1.25-10.45-5.32-10.82-3.77-.22-7.56,0-11.33-.13-1.69-.06-2.14.64-2.43,2.18-.87,4.63-1.96,9.23-3,14.01Z"/>
        <path class="cls-1"
              d="M366.16,139.5c5.33-6.04,10.63-12.1,15.98-18.12,9.16-10.31,18.37-20.57,27.49-30.9,1.25-1.42,2.58-2,4.48-2,3.79,0,7.31-.02,10.98,0,4.09.02,4.82.87,3.98,4.81-2.86,13.45-5.76,26.88-8.63,40.33-2.51,11.76-5.01,23.53-7.51,35.29-.79,3.73-.84,3.8-4.63,3.82s-6.73.01-10.36,0-4.36-.98-3.57-4.6c3.31-15.22,6.63-30.43,9.94-45.64.13-.62.17-1.26.32-2.34-.75.68-1.22,1.03-1.6,1.46-14.51,16.5-29,33.02-43.57,49.47-.79.89-2.16,1.68-4.08,1.68-3.74-.04-5.89,0-10.57,0-3.92-.03-4.41-.84-3.59-4.68,2.53-11.87,5.09-23.73,7.63-35.6,2.92-13.65,5.91-27.29,8.69-40.97.5-2.43,1.42-3.12,3.79-3,3.73-.01,7.17-.03,10.73,0s4.4.89,3.6,4.5c-3.26,14.68-9.98,45.5-10.09,46.23.02.46.26.44.57.28Z"/>
        <path class="cls-1"
              d="M289.88,155.7c11.66,0,22.99,0,34.32,0,.86,0,1.76-.11,2.58.07,1.81.39,2.84,1.4,2.37,3.46-.84,3.67-1.65,7.34-2.38,11.02-.36,1.81-1.36,2.5-3.15,2.48-4.21-.05-8.42-.01-12.63-.01-12.52,0-25.05,0-37.57,0-4.98,0-5.35-.43-4.35-5.15,5.41-25.43,10.86-50.86,16.2-76.3.44-2.1,1.23-2.84,3.39-2.83,16.95.07,33.9.03,50.85.05,3.73,0,4.42.88,3.66,4.43-.67,3.15-1.25,6.2-1.97,9.46-.58,2.65-1.76,3.31-4.15,3.29-10.58-.06-21.16-.02-31.74-.02q-4.82,0-5.81,4.77c-.66,3.16-1.14,6.36-2.07,9.44-.69,2.32.23,2.45,2.1,2.44,8.42-.07,16.84-.04,25.26-.03,4.59,0,5.18.74,4.2,5.11-.66,2.94-1.46,5.85-1.89,8.82-.35,2.44-1.83,3.11-4.19,3.09-8.85-.1-16.06,0-25.97-.05-2.52-.01-3.89.6-4.31,3.13-.71,4.34-1.77,8.62-2.76,13.33Z"/>
        <path class="cls-1"
              d="M599.72,122.26c4.97,0,9.59,0,14.21,0,4.86,0,9.72-.04,14.57.02,3.26.04,4.05,1.02,3.42,4.19-.64,3.27-1.36,6.49-2.06,9.77-.51,2.43-1.63,3.11-3.95,3.09-8.85-.09-17.7.05-26.55-.09-2.49-.04-3.4.38-4,3.2-.91,4.29-1.77,8.6-2.78,13.26,3.07,0,5.83,0,8.6,0,8.85,0,17.7-.02,26.55,0,3.87.01,4.62.97,3.8,4.66-.67,3.04-1.3,6.14-1.94,9.14-.56,2.64-1.73,3.27-4.15,3.25-10.25-.08-43.72-.01-50.19-.04-3.8-.02-4.43-.77-3.66-4.38,5.46-25.75,10.94-51.49,16.37-77.24.39-1.86,1.31-2.63,3.38-2.62,17.05.08,33.97-.02,51.03,0,3.5,0,4.28,1.02,3.57,4.33-.68,3.15-1.43,6.48-2,9.45-.5,2.88-1.83,3.02-4.34,3-8.53-.08-17.06,0-25.59,0-2.91,0-5.92-.11-8.82.07-.82.05-2.07.94-2.54,2.95-1.14,4.89-1.86,8.7-2.96,13.98Z"/>
        <path class="cls-1"
              d="M471.5,174.07c-6.6-.19-9.91-.84-12.79-1.9-15.31-5.61-24.12-18.5-22.22-35.44,2.23-19.94,11.76-35.36,30.04-44.51,11.22-5.62,23.05-6.89,35.1-2.49,5.49,2,10.03,5.33,13.71,9.9,1.36,1.69,1.55,2.86-.29,4.26-3.17,2.42-6.25,4.96-9.34,7.47-1.21.98-2.31,1.54-3.63.12-7.48-8.08-16.54-8.49-26.12-4.87-13.7,5.18-23.35,22.63-20.39,36.35,1.7,7.89,7.61,12.9,15.67,13.38,7.36.44,13.79-1.87,19.52-6.36,2.64-2.07,3.7-1.96,5.84.68,2.04,2.51,4.07,5.02,6.02,7.59,1.86,2.44,1.64,3.87-.86,5.6-9.07,6.27-18.99,10.52-30.26,10.19Z"/>
        <path class="cls-1"
              d="M539.92,105.26c-4.36,0-8.51.04-12.6,0-3.35-.04-4.09-.85-3.48-4.04.61-3.16,1.5-6.94,2.12-10.1.36-1.86,1.27-2.7,3.3-2.7,15,.06,30.01.01,45.01.05,3.02,0,3.91,1.11,3.34,4.03-.61,3.16-1.58,6.92-2.19,10.09-.38,2-1.26,2.67-3.45,2.67-4.04,0-7.34,0-11.36.03-2.14.02-2.74.8-3.12,2.6-4.31,20.39-8.67,40.77-13.01,61.16-.77,3.64-.76,3.66-4.35,3.67-3.35.02-6.69.03-10.04,0-3.76-.03-4.42-.81-3.65-4.46,3.08-14.5,6.2-29,9.3-43.5,1.36-6.38,2.76-12.86,4.16-19.5Z"/>
        <path class="cls-1"
              d="M391.78,64.14c2.87.1,3.03.54,2.74,3.25-.4,3.72,4.56,5.51,7.91,3.37,1.54-.98,2.64-2.53,3.4-4.19.88-1.92,1.16-2.44,3.08-2.45,2.83-.02,6.28,0,9.08.03s2.91,1.71,2.26,4.53c-3.21,13.28-19.12,21.84-32.86,14.93-7.71-3.88-8.67-10.69-7.33-17.13.16-.78.83-2.34,2.87-2.37,1.59-.02,7.45-.02,8.85.03Z"/>
        <path class="cls-1"
              d="M122.72,90.43c-1.29-6.95-2.61-13.89-3.86-20.85-.96-5.33-1.83-10.67-2.83-16.55-4.71,7.41-9.14,14.37-13.57,21.33-19.97,31.37-40.4,63.17-60.27,94.6-1.73,2.74-3.76,3.81-6.83,3.78-8.85-.07-17.7-.02-26.55-.03-.65,0-1.3,0-1.94-.09-4.78-.65-6.48-4.28-3.88-8.38,12.67-19.96,25.78-40.38,38.46-60.33C62.33,71.09,83.21,38.26,104.1,5.44c1.18-1.85,2.47-3.62,3.7-5.43,10.63,0,20.27,0,30.87,0,.17,0,.73.06.89.1,3.58.77,5.24,3.01,6.19,7.55.19.93.4,1.95.59,2.89,2.08,10.47,4.42,22.1,6.51,32.57-.55,1.01-.71,1.16-1.29,2.1-5.97,9.71-12.05,19.34-18,29.06-2.05,3.35-3.81,6.88-5.7,10.33.04-.02.05.06.04.05,4.92-5.22,9.88-10.41,14.77-15.67,10.6-11.39,21.15-22.84,31.76-34.22C184.31,24.16,205.75.93,206.5.01c2.59,0,3.28,0,5.87,0-1.25.62-1.78,1.73-2.67,3.36-5.14,9.43-16.51,29.95-17.03,31.01,1.37.03,1.97.02,2.72.04.7.02.94.03,1.52-.32.54-.33.96-1.18,1.44-2.15,5.18-10.48,10.76-21.13,16.09-31.5,2.77.69,3.51,2.97,3.98,5.28,2.63,12.89,5.27,25.78,7.91,38.67,4.43,21.7,8.88,43.4,13.29,65.1,3.83,18.87,7.65,37.73,11.43,56.61.98,4.91-.78,6.14-4.77,6.28-9.81.33-19.53.38-29.35.35-.48,0-1.8-.47-2.2-.8-1.44-1.18-2.08-3-2.43-4.68-3.65-17.37-7.06-34.78-10.58-52.17-4.07-20.12-8.23-40.22-12.21-60.35-.41-2.06-1.31-1.38-2.4-1.09,2.75-5.4,5.51-10.8,8.29-16.25-1.51-.06-2.71-.15-3.47-.13-.99.03-1.41.63-2.52,2.6-3.01,5.32-5.88,10.72-8.84,16.07-.81,1.47-1.58,2.96-2.6,4.87h5.01c-.88,1.51-1.67,2.84-2.55,4.35-1.2,0-2.17,0-3.38,0-.94,0-1.56.25-2.22,1.39-4.41,7.93-8.81,15.9-13.15,23.88-12.98,0-25.97.01-38.95.02Z"/>
        <path class="cls-3"
              d="M127.86,84.61c1.89-3.45,3.65-6.98,5.7-10.33,5.95-9.72,12.04-19.35,18-29.06.58-.95,25.92-42.4,27.03-44.2.74-1.2,2.14-1,2.32-1,8.24,0,17.35,0,25.59,0-.63.94-22.19,24.15-32.07,34.75-10.61,11.39-21.16,22.83-31.76,34.22-4.89,5.25-9.84,10.45-14.77,15.67l-.04-.05Z"/>
        <path class="cls-3"
              d="M188.57,50.77c.4,1.49.53,1.9.94,3.96,3.99,20.13,8.14,40.23,12.21,60.35,3.52,17.39,6.94,34.81,10.58,52.17.35,1.68,1.3,4.4,4.25,5.42-.75.07-2.72,0-3.47,0-27.85.1-55.54.05-83.4.05-2.94,0-2.98-1.94-1.34-5.12,5.41-10.52,10.06-19.52,15.47-30.04,1.52-2.95,1.56-3.02.37-3.02-.86,0-4.05.02-4.9.02-2.23-.02-2.83.66-3.76,2.36-5.94,10.85-12.16,21.92-18.07,32.8-1.17,2.15-2.42,3.02-4.99,3.01-20.62-.1-41.24-.03-61.87,0-.95,0-1.91,0-3.66,0,1.05-1.24,1.66-2.02,2.32-2.73,24.12-26,48.36-52.29,72.47-78.29.36-.39.65-.84.97-1.27,12.98,0,25.97-.01,38.95-.02.86,0,3.08,0,3.92,0,2.07.02,2.6-.78,3.85-3.45,3-6.38,10.45-20.81,10.98-21.83.88-1.51,1.67-2.84,2.55-4.35,1.38-2.38,4.28-7.6,5.6-10.02ZM140.23,128.62c2.08,0,5.09,0,6.5,0,1.74,0,2.13-.55,3.27-2.86,4.57-9.13,9.19-18.17,13.85-27.24.52-1.02,1.19-2.33,1.8-3.6-1.12-.02-4.52-.12-5.25-.12-1.37,0-2.11.97-3.66,3.85-2.6,4.81-5.28,9.59-7.93,14.38-2.75,4.96-5.47,9.93-8.58,15.59Z"/>
        <path class="cls-4"
              d="M143.84,137.57c-5.4,10.53-10.06,19.52-15.47,30.04-1.52,2.96-1.59,4.85.76,5.1h-15.85c2.05-.17,3.16-1.06,4.2-2.98,5.9-10.87,12.12-21.94,18.07-32.8.93-1.71,1.53-2.38,3.75-2.36.86,0,4.05-.02,4.91-.02,1.2,0,1.15.07-.37,3.02Z"/>
        <path class="cls-4"
              d="M198.39,31.95c-.48.98-.9,1.82-1.45,2.15-.58.36-.82.35-1.52.33-.74-.01-1.35-.01-2.72-.03.52-1.06,11.89-21.58,17.03-31.01.87-1.6,1.39-2.71,2.6-3.34.53.06,1.25.18,2.14.41-5.33,10.36-10.91,21.02-16.09,31.49Z"/>
        <path class="cls-4"
              d="M169.47,86.96c-1.26,2.67-1.78,3.46-3.86,3.45-.84-.01-3.06-.01-3.92,0,4.34-7.98,8.74-15.94,13.15-23.88.66-1.14,1.28-1.38,2.22-1.38,1.21,0,2.18,0,3.38-.01-.52,1.02-7.97,15.45-10.97,21.82Z"/>
        <path class="cls-4"
              d="M188.59,50.77c-1.32,2.42-4.22,7.64-5.6,10.02h-5.01c1.03-1.91,1.79-3.4,2.61-4.87,2.96-5.35,5.83-10.75,8.84-16.07,1.11-1.96,1.52-2.57,2.52-2.59.76-.03,1.96.06,3.47.13-2.29,4.48-4.56,8.94-6.83,13.38Z"/>
        <path class="cls-4"
              d="M140.26,128.61c2.08,0,5.09,0,6.5,0,1.74,0,2.13-.55,3.27-2.86,4.57-9.13,9.19-18.17,13.85-27.24.52-1.02,1.19-2.33,1.8-3.6-1.12-.02-4.52-.12-5.25-.12-1.37,0-2.11.97-3.66,3.85-2.6,4.81-5.28,9.59-7.93,14.38-2.75,4.96-5.47,9.93-8.58,15.59Z"/>
    </g>
</svg>